<svg width="512" height="512" viewBox="0 0 512 512" fill="none" xmlns="http://www.w3.org/2000/svg" xmlns:xlink="http://www.w3.org/1999/xlink" class=""><rect id="r9" width="512" height="512" x="0" y="0" rx="128" fill="url(#ra)" stroke="#FFFFFF" stroke-width="0" stroke-opacity="100%" paint-order="stroke"></rect><clipPath id="clip"><use xlink:href="#r9"></use></clipPath><defs><radialGradient id="ra" cx="50%" cy="50%" r="100%" fx="50%" fy="0%" gradientUnits="objectBoundingBox"><stop stop-color="#4d4d4d"></stop><stop offset="1" stop-color="#000000"></stop></radialGradient><radialGradient id="rb" cx="0" cy="0" r="1" gradientUnits="userSpaceOnUse" gradientTransform="translate(256) rotate(90) scale(512)"><stop stop-color="white"></stop><stop offset="1" stop-color="white" stop-opacity="0"></stop></radialGradient></defs><svg width="352" height="352" viewBox="0 0 24 24" fill="none" xmlns="http://www.w3.org/2000/svg" x="80" y="80" alignment-baseline="middle" style="color: rgb(230, 230, 230);">
 <path d="M14.2495 2H8.49395C8.31447 2 8.22473 2 8.14551 2.02733C8.07544 2.05149 8.01163 2.09093 7.95868 2.14279C7.89881 2.20143 7.85868 2.2817 7.77841 2.44223L3.57841 10.8422C3.38673 11.2256 3.29089 11.4173 3.31391 11.5731C3.33401 11.7091 3.40927 11.8309 3.52197 11.9097C3.65104 12 3.86534 12 4.29395 12H10.4995L7.49953 22L19.6926 9.35531C20.104 8.9287 20.3097 8.7154 20.3217 8.53288C20.3321 8.37446 20.2667 8.22049 20.1454 8.11803C20.0057 8 19.7094 8 19.1167 8H11.9995L14.2495 2Z" stroke="currentColor" stroke-width="2" stroke-linecap="round" stroke-linejoin="round"></path>
 </svg></svg>